<svg width="30" height="20" viewBox="0 0 30 20" fill="none" xmlns="http://www.w3.org/2000/svg">
<path d="M3.06753 6.61623C3.41914 6.38189 3.89597 6.25024 4.39315 6.25024C4.89034 6.25024 5.36716 6.38189 5.71878 6.61623L15 12.8037L24.2813 6.61623C24.6349 6.38853 25.1085 6.26254 25.6002 6.26538C26.0918 6.26823 26.5621 6.39969 26.9097 6.63145C27.2573 6.86321 27.4545 7.17673 27.4588 7.50448C27.4631 7.83222 27.2741 8.14797 26.9325 8.38373L16.3257 15.455C15.974 15.6893 15.4972 15.821 15 15.821C14.5028 15.821 14.026 15.6893 13.6744 15.455L3.06753 8.38373C2.71602 8.14932 2.51855 7.83143 2.51855 7.49998C2.51855 7.16852 2.71602 6.85064 3.06753 6.61623V6.61623Z" fill="white"/>
</svg>
