<svg width="11" height="7" viewBox="0 0 11 7" fill="none" xmlns="http://www.w3.org/2000/svg">
<path d="M3.4375 0C2.52582 0 1.65148 0.368749 1.00682 1.02513C0.362164 1.6815 0 2.57174 0 3.5C0 4.42826 0.362164 5.3185 1.00682 5.97487C1.65148 6.63125 2.52582 7 3.4375 7H7.5625C8.47418 7 9.34852 6.63125 9.99318 5.97487C10.6378 5.3185 11 4.42826 11 3.5C11 2.57174 10.6378 1.6815 9.99318 1.02513C9.34852 0.368749 8.47418 0 7.5625 0H3.4375ZM7.5625 6.3C6.83315 6.3 6.13368 6.005 5.61796 5.4799C5.10223 4.9548 4.8125 4.24261 4.8125 3.5C4.8125 2.75739 5.10223 2.0452 5.61796 1.5201C6.13368 0.994999 6.83315 0.7 7.5625 0.7C8.29185 0.7 8.99132 0.994999 9.50704 1.5201C10.0228 2.0452 10.3125 2.75739 10.3125 3.5C10.3125 4.24261 10.0228 4.9548 9.50704 5.4799C8.99132 6.005 8.29185 6.3 7.5625 6.3Z" fill="#4ECB71"/>
</svg>
